<svg width="40" height="40" viewBox="0 0 40 40" fill="none" xmlns="http://www.w3.org/2000/svg">
<path fill-rule="evenodd" clip-rule="evenodd" d="M7.37491 23.5589C6.94136 24.6004 6.69915 25.7115 6.65991 26.8389C6.71974 27.5343 6.95688 28.2026 7.34866 28.7802C8.08587 29.6337 8.97244 30.3457 9.96491 30.8814L16.3749 35.1489C17.1637 35.7766 18.0506 36.2699 18.9999 36.6089C19.6163 36.7556 20.2585 36.7556 20.8749 36.6089C21.8306 36.2741 22.7246 35.7842 23.5212 35.1589L29.9999 30.8889C31.0025 30.3517 31.8992 29.6367 32.6462 28.7789C33.0407 28.1982 33.2777 27.525 33.3337 26.8252C33.2911 25.6886 33.0425 24.5692 32.5999 23.5214L26.9337 5.68892C26.8072 5.1114 26.5786 4.56109 26.2587 4.06392C26.0257 3.78079 25.7246 3.56144 25.3837 3.42642C24.814 3.27198 24.2214 3.22034 23.6337 3.27392H16.2562C15.6682 3.22048 15.0754 3.2734 14.5062 3.43017C14.1644 3.56492 13.8631 3.78532 13.6312 4.07017C13.3126 4.56737 13.0861 5.1178 12.9624 5.69517L7.37491 23.5589ZM23.9249 7.05892C24.1885 7.47793 24.3751 7.94059 24.4762 8.42517L29.3412 24.4052C27.5139 23.4574 25.5525 22.7943 23.5249 22.4389L20.3637 11.7389C20.3442 11.6757 20.3099 11.6181 20.2637 11.5709C20.2174 11.5237 20.1604 11.4882 20.0976 11.4675C20.0348 11.4469 19.968 11.4415 19.9027 11.452C19.8374 11.4624 19.7756 11.4884 19.7224 11.5277C19.651 11.5799 19.5988 11.6541 19.5737 11.7389L16.4487 22.4352C14.4115 22.7898 12.441 23.4555 10.6062 24.4089L15.4912 8.42892C15.5912 7.94345 15.7784 7.48012 16.0437 7.06142C16.2371 6.82397 16.4873 6.63911 16.7712 6.52392C17.2493 6.39468 17.7468 6.35234 18.2399 6.39892H21.7312C22.2247 6.3523 22.7226 6.39463 23.2012 6.52392C23.4858 6.63944 23.7365 6.82523 23.9299 7.06392L23.9249 7.05892ZM20.1587 26.3252C21.663 26.4123 23.1549 26.0073 24.4087 25.1714C24.5512 25.6201 24.6017 26.0929 24.5573 26.5615C24.5128 27.0302 24.3743 27.4851 24.1499 27.8989C23.6887 28.6828 23.0194 29.3236 22.2162 29.7502C21.3737 30.2852 20.6487 30.7502 20.6487 31.9839C20.6476 32.3797 20.737 32.7704 20.9099 33.1264C20.3418 32.8905 19.8563 32.4914 19.5148 31.9797C19.1733 31.468 18.9911 30.8666 18.9912 30.2514V30.1752C18.9912 29.3214 18.9912 28.2702 17.7887 28.2702C17.621 28.2701 17.455 28.3028 17.2999 28.3664C16.9878 28.4956 16.7397 28.7433 16.6099 29.0552C16.5455 29.2101 16.5119 29.3761 16.5112 29.5439C15.6869 28.6438 15.2442 27.459 15.2762 26.2389C15.2703 25.7109 15.3441 25.185 15.4949 24.6789C15.9949 25.6252 17.8949 26.3289 20.1587 26.3289V26.3252Z" fill="#5553B7"/>
</svg>
