<svg width="40" height="40" viewBox="0 0 40 40" fill="none" xmlns="http://www.w3.org/2000/svg">
<path d="M37.7429 0.0390625L34.4156 36.0792L19.9996 39.9608L5.58348 36.0792L2.25684 0.0390625H37.7429ZM31.0382 7.36727H19.9867H8.73941L9.2773 11.7195H19.9867H20.5882L19.9867 11.9698L9.66871 16.2672L10.0109 20.5213L19.9867 20.5537L25.3334 20.5706L24.9911 26.243L19.9866 27.652V27.6475L19.9456 27.6589L15.1125 26.4388L14.8192 22.9177H14.8032H10.3202H10.3044L10.8912 29.7152L19.9868 32.4049V32.4001L20.0032 32.4049L29.05 29.7641L30.2235 16.2672H19.9868H19.9615L19.9868 16.2562L30.5985 11.7195L31.0382 7.36727Z" fill="#5553B7"/>
</svg>
