<svg width="40" height="40" viewBox="0 0 40 40" fill="none" xmlns="http://www.w3.org/2000/svg">
<g clip-path="url(#clip0_462_143)">
<path fill-rule="evenodd" clip-rule="evenodd" d="M4.615 20.3337C4.665 22.915 4.975 25.3113 5.54625 27.5212C6.11625 29.73 6.99625 31.655 8.19 33.2938C9.38125 34.9313 10.9212 36.2225 12.8075 37.1662C14.695 38.11 17.0037 38.5812 19.7325 38.5812C23.7575 38.5812 27.095 37.5262 29.7525 35.4163C32.4088 33.3037 34.06 30.1413 34.705 25.92H36.195C35.6488 30.3888 33.8862 33.8512 30.9075 36.31C27.9275 38.7675 24.2525 39.9975 19.8825 39.9975C16.9038 40.0475 14.3575 39.575 12.2487 38.5812C10.1362 37.5887 8.41125 36.185 7.07125 34.3725C5.73 32.56 4.7375 30.425 4.0925 27.9675C3.4475 25.51 3.125 22.8675 3.125 20.035C3.125 16.8575 3.59625 14.0275 4.54 11.545C5.48375 9.0625 6.725 6.9625 8.265 5.25C9.8 3.5375 11.5875 2.2375 13.625 1.3425C15.6625 0.4475 17.7475 0 19.8825 0C22.8612 0 25.4325 0.57125 27.5912 1.7125C29.7512 2.855 31.5138 4.37 32.8787 6.25625C34.245 8.14375 35.2375 10.3038 35.8587 12.7362C36.4788 15.1675 36.74 17.6988 36.64 20.3325H4.61625L4.615 20.3337ZM35.1525 18.8438C35.1525 16.51 34.8275 14.2875 34.1838 12.1775C33.5387 10.0675 32.5837 8.2175 31.3162 6.6275C30.05 5.04 28.4737 3.78625 26.5862 2.8675C24.6987 1.94875 22.5138 1.49 20.0312 1.49C17.9437 1.49 15.9963 1.88625 14.1838 2.68125C12.3713 3.47625 10.7838 4.63125 9.4175 6.14375C8.0525 7.65875 6.9475 9.48375 6.1025 11.6187C5.25875 13.7537 4.7625 16.1625 4.615 18.8438H35.1525Z" fill="#5553B7"/>
</g>
<defs>
<clipPath id="clip0_462_143">
<rect width="40" height="40" fill="white"/>
</clipPath>
</defs>
</svg>
