<svg width="40" height="40" viewBox="0 0 40 40" fill="none" xmlns="http://www.w3.org/2000/svg">
<g clip-path="url(#clip0_462_105)">
<path fill-rule="evenodd" clip-rule="evenodd" d="M0.0787819 0.0390625C0.0342507 0.0455469 0.0375319 0.0992187 0.0407351 0.152969C0.0407351 13.4083 0.0407351 26.6616 0.0407351 39.9166C13.2723 40.0052 26.6664 39.9292 39.961 39.9545C39.961 26.6491 39.961 13.3444 39.961 0.0390625C26.6674 0.0390625 13.3725 0.0390625 0.0787819 0.0390625ZM20.3042 35.3255C19.3806 36.2567 17.9231 36.8051 16.13 36.8051C13.1892 36.8051 11.5564 35.3723 10.5141 33.3902C11.5174 32.7495 12.5427 32.1306 13.5878 31.5312C14.0141 32.7235 15.4539 34.064 17.0787 33.2387C18.1086 32.7154 17.9897 31.1286 17.9897 29.4064C17.9897 25.8304 17.9897 21.705 17.9897 18.4789C17.9864 18.4252 17.9832 18.3715 18.0274 18.365C19.2545 18.365 20.4815 18.365 21.7083 18.365C21.7083 21.2391 21.7083 24.4902 21.7083 27.547C21.7083 30.8749 21.9461 33.6709 20.3042 35.3255ZM36.7732 32.0248C36.5643 35.1407 34.0198 36.7953 30.588 36.8051C27.2238 36.8148 25.0705 35.3197 23.7573 33.0108C24.7014 32.361 25.7712 31.8376 26.7553 31.2278C27.5428 32.4591 28.9067 33.6427 30.9295 33.4662C32.1897 33.3564 33.6526 32.3291 32.8268 30.7723C32.4262 30.0177 31.4583 29.6343 30.588 29.2548C27.8261 28.0498 24.5858 26.9445 24.8957 22.6148C24.9994 21.1684 25.6654 20.1519 26.5277 19.4276C27.4114 18.6854 28.5949 18.188 30.1706 18.1377C33.0322 18.046 34.6021 19.3189 35.6728 21.0973C34.7616 21.792 33.7577 22.3948 32.7509 22.9943C32.4205 21.9791 30.8256 20.9898 29.4875 21.5905C28.8789 21.8634 28.3321 22.6655 28.6528 23.6392C28.9387 24.5076 30.105 24.9829 31.0433 25.3848C33.8833 26.6005 37.0571 27.7885 36.7732 32.0248Z" fill="#5553B7"/>
</g>
<defs>
<clipPath id="clip0_462_105">
<rect width="40" height="40" fill="white"/>
</clipPath>
</defs>
</svg>
