<svg width="40" height="40" viewBox="0 0 40 40" fill="none" xmlns="http://www.w3.org/2000/svg">
<g clip-path="url(#clip0_462_132)">
<path d="M35.2499 9.83344L21.4166 2.0001C20.9733 1.79198 20.4896 1.68408 19.9999 1.68408C19.5102 1.68408 19.0265 1.79198 18.5833 2.0001L4.74992 9.83344C4.32459 10.0789 3.97039 10.4308 3.72203 10.8544C3.47367 11.2781 3.3397 11.7591 3.33325 12.2501V27.7501C3.3397 28.2412 3.47367 28.7221 3.72203 29.1458C3.97039 29.5694 4.32459 29.9213 4.74992 30.1668L8.41659 32.2501C9.37446 32.8161 10.4708 33.1046 11.5833 33.0834C14.1666 33.0834 15.6666 31.5001 15.6666 28.8334V13.5834C15.6666 13.4729 15.6227 13.3669 15.5445 13.2888C15.4664 13.2107 15.3604 13.1668 15.2499 13.1668H13.4999C13.3894 13.1668 13.2834 13.2107 13.2053 13.2888C13.1272 13.3669 13.0833 13.4729 13.0833 13.5834V28.8334C13.0833 30.0834 11.8333 31.2501 9.83325 30.2501L5.99992 28.0834C5.94817 28.0446 5.90617 27.9943 5.87724 27.9364C5.84831 27.8786 5.83325 27.8148 5.83325 27.7501V12.2501C5.83899 12.0961 5.89788 11.9489 5.99992 11.8334L19.7499 4.08344H20.2499L33.9999 11.8334C34.102 11.9489 34.1608 12.0961 34.1666 12.2501V27.7501C34.1666 27.8148 34.1515 27.8786 34.1226 27.9364C34.0937 27.9943 34.0517 28.0446 33.9999 28.0834L20.2499 35.8334C20.1739 35.8773 20.0877 35.9004 19.9999 35.9004C19.9121 35.9004 19.8259 35.8773 19.7499 35.8334L16.2499 33.8334C16.2041 33.7924 16.1447 33.7698 16.0833 33.7698C16.0218 33.7698 15.9624 33.7924 15.9166 33.8334L13.8333 34.7501C13.5833 34.8334 13.2499 34.9168 13.9166 35.3334L18.5833 37.9168C19.0042 38.1928 19.4966 38.3399 19.9999 38.3399C20.5033 38.3399 20.9957 38.1928 21.4166 37.9168L35.2499 30.1668C35.6752 29.9213 36.0294 29.5694 36.2778 29.1458C36.5262 28.7221 36.6601 28.2412 36.6666 27.7501V12.2501C36.6601 11.7591 36.5262 11.2781 36.2778 10.8544C36.0294 10.4308 35.6752 10.0789 35.2499 9.83344Z" fill="#5553B7"/>
<path d="M24.25 25.25C20.5833 25.25 19.8333 24.4167 19.5 22.6667C19.5 22.5783 19.4649 22.4935 19.4024 22.431C19.3399 22.3685 19.2551 22.3333 19.1667 22.3333H17.3333C17.2449 22.3333 17.1601 22.3685 17.0976 22.431C17.0351 22.4935 17 22.5783 17 22.6667C17 24.9167 18.25 27.6667 24.25 27.6667C28.5833 27.6667 31.0833 26 31.0833 23.0833C31.0833 20.1667 29.0833 19.3333 24.8333 18.8333C20.5833 18.3333 20.1667 18 20.1667 17C20.1667 16 20.5 15.1667 23.6667 15.1667C26.8333 15.1667 27.5833 15.75 28 17.5833C28.0195 17.6789 28.0718 17.7645 28.148 17.8254C28.2241 17.8864 28.3192 17.9186 28.4167 17.9167H30.1667L30.5 17.75C30.5302 17.7162 30.5531 17.6766 30.5674 17.6336C30.5817 17.5906 30.5872 17.5451 30.5833 17.5C30.3333 14.25 28.0833 12.75 23.6667 12.75C19.25 12.75 17.4167 14.4167 17.4167 17.0833C17.4167 19.75 19.75 20.8333 23.5 21.25C27.25 21.6667 28.4167 22.25 28.4167 23.1667C28.4167 24.0833 27.1667 25.25 24.25 25.25Z" fill="#5553B7"/>
</g>
<defs>
<clipPath id="clip0_462_132">
<rect width="40" height="40" fill="white"/>
</clipPath>
</defs>
</svg>
