<svg width="40" height="40" viewBox="0 0 40 40" fill="none" xmlns="http://www.w3.org/2000/svg">
<path d="M12.1247 5.93004C11.4974 6.29224 10.8372 7.29107 10.7606 9.46979C10.7242 10.5047 9.85575 11.3141 8.82087 11.2777C7.78597 11.2413 6.97652 10.3729 7.0129 9.33802C7.10682 6.66699 7.9515 4.00932 10.2497 2.68244C12.5545 1.3518 15.2871 1.95606 17.6532 3.21834C18.5668 3.70577 18.9124 4.84157 18.4249 5.75519C17.9375 6.66884 16.8017 7.01437 15.8881 6.52697C13.9545 5.49542 12.7539 5.56674 12.1247 5.93004ZM22.1785 9.18227C22.9759 8.52162 24.1579 8.63249 24.8185 9.42992C26.2045 11.1027 27.534 13.0103 28.7407 15.1006C31.3415 19.6049 32.945 24.2198 33.3772 28.0907C33.593 30.0229 33.527 31.8617 33.0757 33.4387C32.621 35.0277 31.7352 36.4659 30.2497 37.3234C28.4525 38.3612 26.3772 38.2139 24.4778 37.5224C22.5717 36.8284 20.6099 35.5142 18.7396 33.8072C17.9748 33.1089 17.9208 31.9229 18.6189 31.1582C19.317 30.3934 20.503 30.3392 21.2678 31.0374C22.9156 32.5414 24.4642 33.5264 25.7607 33.9987C27.0642 34.4732 27.8842 34.3592 28.3747 34.0759C28.7857 33.8387 29.1992 33.3552 29.4705 32.4069C29.7452 31.4469 29.832 30.1324 29.6505 28.5067C29.288 25.2614 27.8977 21.1403 25.4932 16.9756C24.3873 15.0601 23.177 13.3265 21.9308 11.8223C21.2702 11.0249 21.381 9.8429 22.1785 9.18227Z" fill="#5553B7"/>
<path d="M36.25 20.514C36.25 19.7896 35.715 18.7185 33.8665 17.5628C32.9885 17.0138 32.7217 15.857 33.2708 14.9789C33.8198 14.1009 34.9765 13.8341 35.8545 14.3831C38.1208 15.7999 40 17.8603 40 20.514C40 23.1753 38.1105 25.2396 35.8343 26.6576C34.9552 27.2051 33.7987 26.9366 33.2513 26.0576C32.7038 25.1786 32.9725 24.0223 33.8512 23.4747C35.7115 22.316 36.25 21.2406 36.25 20.514ZM28.4065 27.5946C28.58 28.6156 27.893 29.5838 26.872 29.7573C24.7305 30.1211 22.4137 30.3186 20 30.3186C14.7989 30.3186 10.0005 29.4001 6.43215 27.8388C4.6508 27.0596 3.09148 26.0831 1.95132 24.9038C0.802443 23.7155 0 22.2292 0 20.514C0 18.4388 1.16521 16.7151 2.7137 15.416C4.2678 14.1122 6.38678 13.0703 8.80032 12.3042C9.78735 11.9909 10.8414 12.5371 11.1547 13.5241C11.468 14.5111 10.9219 15.5652 9.93485 15.8785C7.80835 16.5534 6.181 17.402 5.12385 18.2889C4.06105 19.1805 3.75 19.9476 3.75 20.514C3.75 20.9885 3.9619 21.5883 4.64738 22.2974C5.34158 23.0154 6.4366 23.7477 7.93522 24.4034C10.9269 25.7121 15.191 26.5686 20 26.5686C22.2119 26.5686 24.3183 26.3873 26.244 26.0601C27.265 25.8868 28.2333 26.5738 28.4065 27.5946Z" fill="#5553B7"/>
<path d="M12.1799 34.0758C12.8072 34.438 14.0023 34.5103 15.9274 33.4873C16.8419 33.0013 17.9771 33.3488 18.463 34.263C18.949 35.1775 18.6016 36.3128 17.6872 36.7988C15.327 38.0528 12.6031 38.6503 10.3049 37.3233C8.00014 35.9928 7.15711 33.324 7.06724 30.6438C7.03254 29.6088 7.84339 28.7418 8.87834 28.707C9.91329 28.6723 10.7804 29.483 10.8151 30.518C10.8886 32.7085 11.5506 33.7125 12.1799 34.0758ZM9.96951 23.7428C8.99866 23.3825 8.50369 22.3035 8.86396 21.3326C9.61971 19.296 10.6069 17.1908 11.8138 15.1005C14.4143 10.5961 17.6091 6.89991 20.7452 4.59023C22.3108 3.43718 23.9361 2.57498 25.5276 2.17726C27.1311 1.77648 28.8196 1.82466 30.3048 2.68228C32.1021 3.71988 33.0123 5.59086 33.3631 7.58143C33.7151 9.57921 33.5581 11.9352 33.0146 14.4085C32.7923 15.4199 31.7923 16.0597 30.7811 15.8375C29.7696 15.6153 29.1298 14.6153 29.3521 13.6039C29.8306 11.4248 29.9093 9.59118 29.6701 8.23221C29.4293 6.86601 28.9203 6.21311 28.4298 5.92988C28.0191 5.69263 27.3936 5.57623 26.4368 5.81536C25.4678 6.05753 24.2861 6.63971 22.969 7.60971C20.3397 9.54616 17.4659 12.8107 15.0614 16.9755C13.9554 18.891 13.0593 20.8059 12.3797 22.6373C12.0194 23.6081 10.9403 24.1031 9.96951 23.7428Z" fill="#5553B7"/>
<path d="M23.6482 20.1655C23.6482 22.0424 22.1266 23.564 20.2497 23.564C18.3728 23.564 16.8513 22.0424 16.8513 20.1655C16.8513 18.2886 18.3728 16.7671 20.2497 16.7671C22.1266 16.7671 23.6482 18.2886 23.6482 20.1655Z" fill="#5553B7"/>
</svg>
