<svg width="40" height="40" viewBox="0 0 40 40" fill="none" xmlns="http://www.w3.org/2000/svg">
<g clip-path="url(#clip0_462_108)">
<path d="M20.0001 6.6665C17.2642 6.6665 14.912 7.40493 13.0657 8.98749C11.2326 10.5587 10.0335 12.8459 9.36829 15.6969C9.22309 16.319 9.5397 16.9568 10.1231 17.2173C10.7065 17.4778 11.3927 17.2878 11.759 16.7644C12.6034 15.5582 13.4464 14.8335 14.2564 14.4615C15.0409 14.1013 15.8865 14.0283 16.8551 14.2878C17.8325 14.5496 18.5892 15.3163 19.7771 16.6083L19.8154 16.65C20.7109 17.624 21.8032 18.8121 23.2972 19.7339C24.8475 20.6904 26.7767 21.3331 29.3335 21.3331C32.0692 21.3331 34.4215 20.5947 36.2679 19.0122C38.1007 17.441 39.2999 15.1537 39.9652 12.3028C40.1103 11.6806 39.7938 11.0429 39.2103 10.7824C38.6271 10.5219 37.9407 10.7118 37.5743 11.2352C36.73 12.4414 35.8871 13.1662 35.077 13.5381C34.2924 13.8983 33.4468 13.9713 32.4783 13.7119C31.501 13.4501 30.7442 12.6833 29.5564 11.3914L29.518 11.3496C28.6226 10.3756 27.5303 9.18752 26.0362 8.26573C24.486 7.3092 22.5568 6.6665 20.0001 6.6665Z" fill="#5553B7"/>
<path d="M10.6668 18.6665C7.93091 18.6665 5.57875 19.4049 3.73243 20.9875C1.89939 22.5587 0.700245 24.8459 0.0350307 27.6969C-0.110148 28.3191 0.206443 28.9567 0.789829 29.2172C1.37322 29.4777 2.0594 29.2879 2.42579 28.7644C3.27013 27.5583 4.11317 26.8335 4.9232 26.4615C5.70768 26.1013 6.55325 26.0283 7.52184 26.2878C8.49928 26.5496 9.25592 27.3164 10.4438 28.6084L10.4822 28.65C11.3776 29.6239 12.47 30.8121 13.964 31.734C15.5143 32.6905 17.4434 33.3332 20.0002 33.3332C22.7361 33.3332 25.0882 32.5948 26.9347 31.0121C28.7675 29.4409 29.9667 27.1537 30.632 24.3028C30.7771 23.6806 30.4605 23.0429 29.8771 22.7823C29.2939 22.5218 28.6075 22.7118 28.2411 23.2352C27.3968 24.4414 26.5538 25.1662 25.7438 25.5381C24.9593 25.8983 24.1137 25.9713 23.1451 25.7119C22.1677 25.4501 21.4111 24.6833 20.2232 23.3914L20.1848 23.3496C19.2894 22.3757 18.197 21.1875 16.703 20.2657C15.1527 19.3092 13.2235 18.6665 10.6668 18.6665Z" fill="#5553B7"/>
</g>
<defs>
<clipPath id="clip0_462_108">
<rect width="40" height="40" fill="white"/>
</clipPath>
</defs>
</svg>
