<svg width="36" height="29" viewBox="0 0 36 29" fill="none" xmlns="http://www.w3.org/2000/svg">
<path d="M34 7.42857L27.6697 11.0082C24.1404 13.0039 22.3758 14.0018 20.507 14.3931C18.853 14.7392 17.147 14.7392 15.493 14.3931C13.6242 14.0018 11.8596 13.0039 8.33031 11.0082L2 7.42857M7.68889 27.3333H28.3111C30.3024 27.3333 31.2981 27.3333 32.0587 26.9389C32.7276 26.592 33.2716 26.0383 33.6124 25.3573C34 24.5832 34 23.5697 34 21.5429V7.79048C34 5.76363 34 4.75019 33.6124 3.97604C33.2716 3.29506 32.7276 2.74142 32.0587 2.39446C31.2981 2 30.3024 2 28.3111 2H7.68889C5.6976 2 4.70194 2 3.94137 2.39446C3.27234 2.74142 2.72841 3.29506 2.38754 3.97604C2 4.75019 2 5.76361 2 7.79048V21.5429C2 23.5697 2 24.5832 2.38754 25.3573C2.72841 26.0383 3.27234 26.592 3.94137 26.9389C4.70194 27.3333 5.69758 27.3333 7.68889 27.3333Z" stroke="#C4C4C4" stroke-width="3" stroke-linecap="round" stroke-linejoin="round"/>
</svg>
